<?xml version="1.0" encoding="UTF-8"?>
<svg xmlns="http://www.w3.org/2000/svg" version="1.1" viewBox="5 3 42 42">
  <path fill="#8fa856" d="M39.32,21.6v-6.22h4.15c-5.82-3.6-11.65-7.19-17.47-10.79-5.82,3.6-11.65,7.19-17.47,10.79h4.15v6.22c1.61.48,4.1,1.45,6.6,3.47,1.79,1.44,3.02,2.96,3.82,4.14v-7.49h5.82v7.49c.81-1.18,2.04-2.7,3.82-4.14,2.49-2,4.96-2.98,6.57-3.47Z"/>
  <g fill="#4e762e">
    <path d="M27.18,43.41c1.4.01,8.21-.08,13.81-5.44,6.27-6.01,6.07-13.9,6.01-15.11-2.22.15-7.38.81-12.11,4.63-2.65,2.14-4.19,4.48-4.97,5.84-2.38,4.17-2.72,8.13-2.75,10.08Z"/>
    <path d="M24.82,43.41c-1.4.01-8.21-.08-13.81-5.44-6.27-6.01-6.07-13.9-6.01-15.11,2.22.15,7.38.81,12.11,4.63,2.65,2.14,4.19,4.48,4.97,5.84,2.38,4.17,2.72,8.13,2.75,10.08Z"/>
  </g>
</svg>